<?xml version="1.0" encoding="UTF-8"?>
<svg fill="none" viewBox="0 0 803 310" xmlns="http://www.w3.org/2000/svg">
<path d="m154.73 3.376s137.27 27.664 124.48 77.292c-12.769 49.627 68.313-17.614 100.66 0.2701 23.029 12.724 13.825 51.519 24.972 67.134 25.556 35.822 51.678-9.294 84.213 17.776 32.515 27.069-4.885 274.32-18.126 274.29l-477.63 4.593-5.9976 0.27s-53.715-72.645-20.426-115.09c33.289-42.469 5.3187-62.217 1.2636-78.616-4.6397-18.83 0.7922-72.348 48.17-95.905 34.345-17.074 35.269-76.752 33.874-87.558 0-0.027-13.297-85.666 104.54-64.459z" fill="#FFF7F2"/>
<path d="m293.4 246.36c0.018-0.452 0.621-0.791 0.961-0.396 0.32 0.396 0.32 0.132 0.621 0.98 0.905 2.45 2.243 4.805 3.807 6.878 2.977 3.957 5.935 5.954 9.289 7.933-1.375-3.109-2.317-6.426-2.431-9.78-0.037-1.225-0.018-2.487 0.509-3.599 0.151-0.32 0.716-0.245 0.773 0.094 0.282 1.734-0.132 3.034 0.433 6.124 1.338 7.387 6.633 15.207 11.739 20.69-0.98-9.271-1.451-19.823 0.302-29.169 0.282-1.526 0.735-2.996 1.168-4.485 0.094-0.358 0.603-0.207 0.547 0.151-0.095 0.49-0.924 6.934-0.98 7.387-0.811 7.122-0.641 15.017-0.019 22.215 3.957-5.351 6.614-11.607 7.857-18.145 0.358-1.941 0.471-3.92 0.98-5.823 0.075-0.264 0.509-0.282 0.565 0 0.528 2.846-0.527 7.858-1.3 10.59-1.564 5.54-4.051 10.495-7.462 14.924-0.131 0.169 5.484 43.47 5.333 44.017-0.264 0.923-1.865 1.582-2.11-0.076-0.095-0.659-3.185-27.002-4.579-39.193-0.528-0.283-0.867-0.81-2.224-2.318-3.128-3.505-6.218-7.876-8.291-12.003-1.243-0.075-10.212-4.428-14.659-14.339-0.132-0.283-0.698-1.621-0.792-1.922-0.094-0.245-0.037-0.471-0.037-0.735z" fill="#29446D"/>
<path d="m322.2 232.32c-0.094-1.338-0.15-2.694-0.15-4.089 0-15.47 6.576-28 14.697-28s14.698 12.53 14.698 28c0 1.395-0.057 2.751-0.151 4.089h-29.094z" fill="#184655"/>
<path d="m305.57 225.44c-0.094-1.884-0.151-3.806-0.151-5.747 0-21.801 6.577-39.494 14.698-39.494s14.697 17.674 14.697 39.494c0 1.96-0.056 3.882-0.15 5.747h-29.094z" fill="#3C8F7C"/>
<path d="m310.96 249.64c0.094-1.338 0.151-2.695 0.151-4.089 0-15.47-6.576-28.001-14.698-28.001-8.121 0-14.697 12.531-14.697 28.001 0 1.394 0.057 2.751 0.151 4.089h29.093z" fill="#3C8F7C"/>
<path d="m334.47 249.64c0.132-1.885 0.189-3.807 0.189-5.766 0-21.801-8.348-39.495-18.617-39.495-10.288 0-18.617 17.675-18.617 39.495 0 1.959 0.075 3.881 0.188 5.766h36.857z" fill="#184655"/>
<path d="m320.17 204.39c5.144 0 9.742 5.615 12.757 14.396 1.545-0.81 3.184-1.244 4.88-1.244 9.12 0 16.526 12.531 16.526 28.001 0 1.394-0.057 2.751-0.17 4.089h-50.348c-0.113-1.885-0.17-3.807-0.17-5.766 0-21.801 7.387-39.476 16.525-39.476z" fill="#3C8F7C"/>
<path d="m286.48 298.18c-37.742 3.222-86.677 21.688-135.42 36.235 90.145 9.817 222.63 25.834 230.86 26.041l-13.944-0.019 19.672 0.32 53.683-0.753c-25.042-16.808-117.11-65.046-154.85-61.824z" fill="#3C8F7C"/>
<path d="m6.5305 281.5h-2.7511v48.125h2.7511v-48.125z" fill="#355389"/>
<path d="m5.8898 195.71-13.548 97.136h27.077l-13.529-97.136z" fill="#327765"/>
<path d="m-6.7914 286.68 24.288-7.669-0.3769-2.619-23.516 7.405-0.3957 2.883z" fill="#50BFA5"/>
<path d="m-2.514 255.99 16.092-5.069-0.3769-2.638-15.319 4.824-0.3957 2.883z" fill="#50BFA5"/>
<path d="m444.29 324.91c2.13-5.559 4.221-11.117 5.748-16.902 4.673-17.788 3.542-30.77 3.372-37.007-0.018-0.829 1.301-1.056 1.414-0.208 0.395 2.921 0.49 5.898 0.508 8.856 0.038 4.994-0.263 9.987-0.904 14.962 3.429 0.885 6.67-0.452 9.327-2.846 4.579-4.145 6.199-9.666 6.934-15.771 0.076-0.622 0.095-1.225 0.603-1.583 0.113-0.32 0.584-0.414 0.698 0.057 0.716 0.753 0.376 2.242 0.263 3.203-1.507 13.02-9.421 19.333-15.79 19.276-0.697 0-1.545-0.037-2.299-0.245-0.452 3.109-1.055 6.2-1.771 9.271-1.376 5.822-3.316 11.456-5.427 17.034-7.273 19.069-9.591 28.792-11.645 34.313-0.32 1.112-1.959 0.641-1.658-0.471 0.038-0.396 5.709-19.182 10.627-31.939z" fill="#29446D"/>
<path d="m415.16 274.79c0.076-0.415 0.302-0.678 0.396-1.074 0.113-0.509 0.942-0.565 1.036 0 0.057 0.32 0.227 0.509 0.302 0.848 0.226 1.055-0.32 6.991 1.093 16.054 0.377 2.412 0.791 4.805 1.583 7.123 1.3 3.731 3.655 7.725 6.613 10.269 0.095-5.314 0.415-10.627 1.056-15.903 0.377-3.166 0.866-6.313 1.451-9.441 0.282-1.526 0.584-3.033 0.923-4.56 0.339-1.582 0.678-3.109 1.432-4.541 0.226-0.433 0.904-0.245 0.904 0.245 0 1.413-0.282 2.714-0.565 4.07-0.301 1.357-0.565 2.733-0.829 4.108-1.884 10.156-2.6 19.182-2.6 29.357 3.109-3.919 5.841-8.611 7.857-13.227 2.431-5.54 4.07-11.513 4.749-17.562 0.188-1.696 0.301-3.392 0.339-5.106 0.019-0.886 0.037-1.772 0.056-2.657 0-0.453 0.189-1.828 0.942-1.414 0.698 0.377 0.641 1.188 0.698 1.904 0.056 0.791 0.075 1.564 0.056 2.355-0.019 1.507-0.094 3.015-0.245 4.522-1.017 10.873-5.106 21.613-11.362 30.432-0.942 1.337-1.941 2.788-3.09 3.957 0.263 17.41 2.845 39.381 2.901 41.152 0.019 0.396-0.075 0.792-0.131 1.169-0.113 0.791-1.15 0.603-1.376 0-0.396-1.15-0.358-1.602-0.961-7.933-1.074-11.325-2.261-37.253-2.261-38.308-3.712-2.657-6.331-6.746-8.046-11.023-0.904-2.261-1.451-4.598-1.847-7.028-1.337-8.216-1.281-16.431-1.074-17.788z" fill="#29446D"/>
<path d="m440.63 260.6c-0.132-1.262-0.207-2.543-0.207-3.844 0-14.546 9.044-26.342 20.199-26.342s20.2 11.796 20.2 26.342c0 1.301-0.076 2.582-0.207 3.844h-39.985z" fill="#184655"/>
<path d="m417.76 254.12c-0.132-1.771-0.208-3.58-0.208-5.426 0-20.52 9.045-37.159 20.2-37.159s20.2 16.639 20.2 37.159c0 1.846-0.076 3.655-0.208 5.426h-39.984z" fill="#3C8F7C"/>
<path d="m457.5 276.88c0.17-1.772 0.264-3.581 0.264-5.427 0-20.52-11.456-37.158-25.607-37.158s-25.608 16.638-25.608 37.158c0 1.846 0.094 3.655 0.264 5.427h50.687z" fill="#184655"/>
<path d="m437.82 234.32c7.066 0 13.379 5.276 17.543 13.549 2.129-0.754 4.372-1.169 6.708-1.169 12.549 0 22.725 11.796 22.725 26.343 0 1.3-0.076 2.581-0.245 3.844h-69.229c-0.151-1.772-0.245-3.581-0.245-5.427 0.019-20.501 10.194-37.14 22.743-37.14z" fill="#3C8F7C"/>
<path d="m404.66 313.19 3.297-4.202c2.375-3.166 1.903-7.556-1.093-9.798-7.518-5.653-18.484-3.769-24.495 4.22l-4.391 5.842c-1.922 2.562-4.955 3.749-7.782 3.373-2.562-0.359-5.2 0.847-6.84 3.014l-2.317 3.072c-2.507 3.335-3.373 7.556-2.488 11.475 0.509 2.299 0.019 4.862-1.564 6.953l-3.278 4.353c-3.618 4.824-2.883 11.494 1.658 14.905l2.581 1.94c4.542 3.411 11.155 2.28 14.773-2.543 3.825-6.652 8.272-8.8 11.871-9.252 5.276-0.641 10.194-3.449 13.492-7.839l0.471-0.622c3.486-4.635 4.729-10.495 3.599-15.979-0.49-2.393-0.113-5.426 2.506-8.912z" fill="#327765"/>
<path d="m20.342 360.06h-7.7256v-49.444l3.8628-4.051 3.8628 4.051v49.444z" fill="#FAE0B2"/>
<path d="m8.8104 360.06h-7.7256v-49.444l3.8628-4.051 3.8628 4.051v49.444z" fill="#FAE0B2"/>
<path d="m32.477 360.06h-7.7256v-49.444l3.8628-4.051 3.8628 4.051v49.444z" fill="#FAE0B2"/>
<path d="m142.54 108.65c-1.092-4.748-5.332-8.291-10.401-8.291-0.923 0-1.828 0.113-2.694 0.34-2.506-5.3518-7.933-9.0639-14.246-9.0639-1.62 0-3.203 0.245-4.673 0.7161-3.391-5.6152-9.553-9.3838-16.6-9.3838-8.3662 0-15.508 5.3137-18.202 12.757-1.922-1.074-4.1078-1.677-6.4631-1.677-7.3487 0-13.284 5.954-13.284 13.303 0 0.433 0.0189 0.867 0.0566 1.281h86.507v0.019z" fill="#fff" opacity=".8"/>
<path d="m292.21 138.8c0.753-3.298 3.693-5.747 7.216-5.747 0.641 0 1.263 0.075 1.866 0.245 1.733-3.712 5.502-6.294 9.873-6.294 1.131 0 2.224 0.17 3.241 0.49 2.356-3.9 6.614-6.501 11.495-6.501 5.803 0 10.759 3.694 12.624 8.857 1.319-0.735 2.846-1.169 4.485-1.169 5.088 0 9.214 4.127 9.214 9.214 0 0.302-0.019 0.603-0.038 0.886h-59.976v0.019z" fill="#fff" opacity=".8"/>
<path d="m152.26 146.9c0.98-4.239 4.768-7.405 9.309-7.405 0.829 0 1.639 0.113 2.412 0.302 2.242-4.787 7.103-8.103 12.737-8.103 1.451 0 2.865 0.226 4.184 0.641 3.033-5.031 8.535-8.385 14.848-8.385 7.499 0 13.868 4.748 16.28 11.418 1.715-0.961 3.674-1.507 5.785-1.507 6.557 0 11.89 5.333 11.89 11.89 0 0.396-0.019 0.772-0.057 1.149h-77.388z" fill="#fff" opacity=".8"/>
<path d="m162.57 206.1s20.8 19 51.2-3.4" stroke="#38251F" stroke-miterlimit="10"/>
<g fill="#F0714C" opacity=".34">
<path d="m216.97 154.9c0 3.6 1.9 6.7 4.8 8.5 2.1-6.6 2.5-12.8 2.1-17.9-4 1.3-6.9 5-6.9 9.4z" opacity=".34"/>
<path d="m183.37 157.5c0-5.5-4.4-9.9-9.9-9.9-1.8 0-3.5 0.5-4.9 1.3 0.1 4.2 0.9 11.6 4.6 18.5h0.3c5.4 0 9.9-4.4 9.9-9.9z" opacity=".34"/>
</g>
<path d="m157.97 141.2s6.8 1.6 7.1 6.4c0 0-3.6-1.4-5.3 1.5" stroke="#38251F" stroke-miterlimit="10"/>
<path d="m285.63 361.97 14.316-13.553-8.399-18.038c-7.635-18.324-9.258-32.64-19.088-49.915l-8.59-15.175-34.358 16.989 6.776 16.033c7.731 18.325 16.607 36.077 26.533 53.256l5.535 8.399c3.913 5.917 12.121 6.871 17.275 2.004z" fill="#FFB087"/>
<path d="m99.526 371.04-14.316-13.553 8.3987-18.038c7.6355-18.324 9.2575-32.64 19.088-49.915l8.589-15.175 34.358 16.988-6.776 16.034c-7.73 18.325-16.606 36.077-26.532 53.256l-5.536 8.398c-3.817 5.918-12.12 6.872-17.274 2.005z" fill="#FFB087"/>
<path d="m31 291.63 17.752-15.08 38.367 33.595c12.884 9.83 23.478 23.574 33.881 35.79l-29.491 16.893-0.9544-0.859c-10.212-8.59-19.374-18.229-27.487-28.728l-32.068-41.611z" fill="#FFB087"/>
<path d="m170.34 208.41-2.195-54.782 34.74-1.432 2.1 50.774c0.095 3.34 2.1 6.299 5.154 7.731 11.357 5.44 32.258 14.602 45.525 15.938 0 0-71.485 40.085-118.82 3.34 0 0 16.797-5.63 29.586-13.743 2.482-1.622 4.009-4.581 3.913-7.826z" fill="#FFB087"/>
<path d="m204.6 195.9s-19.374 0.573-28.345-13.552c0 0 5.249 20.806 28.536 19.851l-0.191-6.299z" fill="#F0714C" opacity=".34"/>
<path d="m209.95 210.89c-17.943 15.939-41.517 3.436-41.517 3.436s-33.594 14.698-43.902 17.561c-10.212 2.863-33.595 92.1-33.595 92.1s12.121 4.581 41.803 10.784l2.386-31.399-8.59 122.16s80.456 17.752 129.89-3.818l-5.44-117.87 1.05 22.237s19.947-3.245 46.575-16.511c0 0-19.279-60.89-25.96-70.339-6.681-9.353-17.37-12.98-31.4-17.465-10.117-3.245-31.304-10.881-31.304-10.881z" fill="#5955BD"/>
<path d="m216.92 121.18c1.241 2.577 2.386 5.44 3.34 8.685 0.287 1.05 0.573 2.1 0.764 3.15 1.05 4.199 1.622 10.212 1.05 13.647-0.191 1.146-0.191 2.386 0.191 3.532 2.099 6.203 6.967 26.437-10.117 45.143-2.291 2.577-13.553 1.145-16.702 0.572-26.628-5.44-23.955-35.026-23.955-35.026-0.573-1.813-7.636-0.954-8.208-2.863-1.718-5.536-3.341-16.13-3.054-22.715" fill="#FFB087"/>
<path d="m196.4 141.7c-1.718-1.718-10.021 2.099-10.403 2.29-2.576 1.623-1.622 3.341-1.24 3.913 0.191 0.382 1.145-0.191 3.626-0.859 5.154-1.431 7.349-0.668 8.304-2.29 0.572-1.05 0.381-2.386-0.287-3.054z" fill="#663C34"/>
<path d="m211.67 139.98c1.24-1.527 7.253 1.527 7.539 1.718 2.005 1.431 1.432 4.008 1.146 4.581-0.191 0.286-0.859-0.191-2.768-0.764-3.913-1.241-5.536-0.668-6.299-2.1-0.477-0.954-0.095-2.863 0.382-3.435z" fill="#663C34"/>
<path d="m207.37 150.19s-0.954 6.776 2.291 8.589c6.203 3.532-0.573 8.399-5.536 8.59" stroke="#38251F" stroke-miterlimit="10" stroke-width=".9544"/>
<path d="m187.62 157.54s3.245-3.436 8.399-0.382" stroke="#38251F" stroke-miterlimit="10" stroke-width=".9544"/>
<path d="m213 156.01s2.386-3.436 6.585-0.382" stroke="#38251F" stroke-miterlimit="10" stroke-width=".9544"/>
<path d="m190.67 170.04s3.627 9.64 16.797 5.727" stroke="#38251F" stroke-miterlimit="10" stroke-width=".9544"/>
<path d="m198.59 106.76c-20.519 6.68-48.388 17.656-42.375 38.844l12.98 36.553-0.477-14.698 4.295-8.685 3.054-25.482s0.668-0.191 1.813-0.573c6.299 0.764 22.619 2.673 26.628 1.432 4.295-1.336-1.241-3.627-2.959-4.295 2.291 0.859 15.461 6.013 22.619 2.863 5.727-2.672 13.171-38.653-25.578-25.959z" fill="#663C34"/>
<path d="m156.31 164.12c1.908 5.917 7.826 9.353 13.17 7.635 5.345-1.718 8.208-7.921 6.299-13.934-1.908-5.917-7.826-9.353-13.17-7.635-5.345 1.718-8.208 8.017-6.299 13.934z" fill="#FFB087"/>
<path d="m252.98 290.09-1.134 0.16 4.797 34.021 1.134-0.16-4.797-34.021z" fill="#686EE8"/>
<path d="m133.84 294.94-1.684 39.762 1.144 0.049 1.684-39.763-1.144-0.048z" fill="#686EE8"/>
<path d="m175.59 129s8.495 25.101-2.481 27.105v-25.196l2.481-1.909z" fill="#663C34"/>
<path d="m87.391 199.14c1.9979-6.142-4.2177-16.427-12.505-16.131-5.7716 0.222-11.321 5.476-11.247 10.285 0.074 7.474 13.541 13.837 20.274 10.063 0.296-0.222 2.5898-1.553 3.4777-4.217z" fill="#C78D42"/>
<path d="m80.584 204.32s1.4799-9.249 6.5115-12.061c0.074 0-10.285 0.222-6.5115 12.061z" fill="#E8B64A"/>
<path d="m83.469 190.26c0.148 0.148-0.3699-1.923-3.1077-2.885-3.5518-1.258-9.8413-0.296-10.211 0.074-0.2959 0.222 2.5159 0.37 1.9979 0.814-0.37 0.296-1.9239 0.444-2.1458 0.666-0.37 0.37 4.4396 0.148 3.9957 0.665-0.222 0.222-1.258 0.37-1.4799 0.592-0.444 0.37 2.9597 0.222 5.6975 0.814 2.5158 0.518 3.2558 1.48 3.4778 1.332 0.5179-0.222-2.6638-3.107-2.2199-3.329 0.37-0.296 2.4419 0.074 3.9957 1.257z" fill="#E8B64A"/>
<path d="m117.51 198.25c-2.886-5.772 1.776-16.871 10.063-17.833 5.771-0.666 11.987 3.774 12.579 8.584 0.962 7.399-11.395 15.612-18.573 12.875-0.444-0.074-2.811-1.036-4.069-3.626z" fill="#AB6D39"/>
<path d="m64.379 191.81s-2.9598 15.909 18.869 13.467c0 0-13.171 10.064 2.8118 20.053 0 0-16.057 1.48-5.9196-16.723" stroke="#C78D42" stroke-miterlimit="10" stroke-width=".73994"/>
<path d="m127.27 234.14c-0.888 0.962-1.406 2.22-1.406 3.626 0 2.96 2.368 5.327 5.328 5.327 2.959 0 5.327-2.367 5.327-5.327s-2.368-5.328-5.327-5.328" stroke="#38251F" stroke-miterlimit="10" stroke-width=".73994"/>
<path d="m139.41 399.51h22.716l0.74-41.511c1.998-26.49-1.998-35.814-4.069-48.911l-8.806-21.828-16.057 16.649 0.37 11.617c0.444 13.245 1.776 26.342 3.996 39.439l1.11 44.545z" fill="#FFC4AB"/>
<path d="m71.112 399.51h-22.716l-4.5136-40.696c-1.9979-26.49 5.6975-36.628 7.8434-49.725l8.8053-21.754 16.057 16.649-0.37 11.617c-0.444 13.245-1.7759 26.342-3.9957 39.439l-1.1099 44.47z" fill="#FFC4AB"/>
<path d="m102.12 186.11c17.389-2.886 29.376 5.845 32.187 20.792 0 0-1.036 10.507 0.666 13.615 2.22 3.922 4.884 15.317-10.433 29.672-2.072 1.924-8.213 1.998-9.471 1.776-21.754-3.626-20.275-20.497-20.275-20.497-0.444-1.184-11.247-13.023-11.543-14.281-2.6638-14.872 1.4799-28.191 18.869-31.077z" fill="#FFC4AB"/>
<path d="m92.57 259.37v-36.479h22.642v33.815c0 2.22 3.108 5.92 5.179 6.956 7.918 3.922 18.869 8.139 28.266 9.397 0 0-45.654 78.656-82.8-0.222 0 0 14.281-3.256 23.53-8.361 1.9979-1.036 3.1818-3.034 3.1818-5.106z" fill="#FFC4AB"/>
<path d="m113.88 185.67c-12.283-1.258-29.968 0.074-33.816 21.162-3.8477 21.015 14.059 21.829 14.059 21.829 4.5877-1.554 1.3319-15.391 1.3319-15.391 17.537 2.663 24.788-10.803 24.788-10.803 3.552 4.291 8.288 7.473 13.689 9.101h0.074c3.108-14.059-9.989-24.788-20.126-25.898z" fill="#C78D42"/>
<path d="m115.14 251.97s-10.951-1.036-17.389-10.359c0 0 6.5118 12.727 17.389 14.132v-3.773z" fill="#FFB087"/>
<path d="m67.634 395.66c-5.8455 0-5.8455-37.589-5.8455-38.699v-34.778l10.581 20.423c-17.463 3.626-33.594-7.104-33.594-7.104s12.061-60.157 19.46-61.785c7.3995-1.628 20.496-4.81 20.496-4.81l27.747 5.698 21.977-8.065c2.368 0.37 14.355 3.773 17.092 4.735 8.066 2.812 15.243 20.349 16.797 25.306 2.96 9.546 9.841 43.953 9.841 43.953-19.312 8.065-29.745 2.96-29.745 2.96l7.547-10.507 1.776 17.314c0.814 7.918 1.184 15.909 1.11 23.826-0.074 9.25-0.148 20.941 0.222 21.681-0.148-0.074-32.632-0.148-85.464-0.148z" fill="#F0714C"/>
<path d="m81.915 230.58c1.11 4.81 5.8456 7.918 10.433 7.03 4.6616-0.962 7.5474-5.624 6.3635-10.433-1.1099-4.81-5.8456-7.918-10.433-7.03-4.6617 0.962-7.4735 5.624-6.3636 10.433z" fill="#FFC4AB"/>
<path d="m87.687 225.92s5.0316 1.184 5.2536 4.735c0 0-2.6638-1.036-3.9217 1.11" stroke="#38251F" stroke-miterlimit="10" stroke-width=".73994"/>
<path d="m107.66 186.41c0.444-0.074-5.253-0.37-10.433 1.628-6.5855 2.515-10.359 7.991-9.9892 8.435 0.296 0.37 3.4777-1.924 3.9957-1.332 0.3699 0.37-0.814 1.776-0.518 1.998 0.518 0.444 4.8836-3.626 5.5496-3.108 0.296 0.222-0.37 1.184-0.074 1.406 0.5919 0.518 3.4037-2.368 7.6217-4.44 3.847-1.849 6.955-2.145 6.881-2.441-0.074-0.518-10.433 1.183-10.507 0.74-0.074-0.444 2.96-1.998 7.473-2.886z" fill="#E8B64A"/>
<path d="m109.88 216.08c-1.036-0.961-6.215 1.184-6.437 1.332-1.628 0.888-1.036 1.924-0.74 2.294 0.148 0.222 0.74-0.148 2.22-0.518 3.181-0.814 4.513-0.444 5.105-1.332 0.37-0.518 0.296-1.332-0.148-1.776z" fill="#C78D42"/>
<path d="m125.28 215.71c0.888-0.739 4.218 0.888 4.366 1.036 1.184 0.814 1.258 1.85 1.036 2.146-0.148 0.148-0.592-0.148-1.702-0.518-2.442-0.74-3.552-0.518-3.922-1.258-0.222-0.444-0.074-1.11 0.222-1.406z" fill="#C78D42"/>
<path d="m122.24 221.19s-3.107 4.884 1.628 6.512c4.736 1.627-2.072 5.697-2.072 5.697" stroke="#38251F" stroke-miterlimit="10" stroke-width=".73994"/>
<path d="m113.14 225.11s-2.812-2.664-6.585-0.444l-1.554-0.962" stroke="#38251F" stroke-miterlimit="10" stroke-width=".73994"/>
<path d="m125.79 224.74s1.554-2.812 4.958-0.962l0.962-1.11" stroke="#38251F" stroke-miterlimit="10" stroke-width=".73994"/>
<path d="m136.67 227.03c-3.034 0.74-5.327 3.773-5.327 7.473 0 1.998 0.74 3.848 1.85 5.254 2.515-4.366 3.477-8.288 3.551-11.469 0-0.444 0-0.888-0.074-1.258z" fill="#FFB087"/>
<path d="m105.59 236.8c0-4.218-3.034-7.622-6.7339-7.622-1.5539 0-2.8118 0.222-2.8118 0.222-0.148 1.332-0.074 2.96 0 3.182 0 0-0.4439 5.624 3.1078 11.173 0.148 0.222 0.37 0.37 0.518 0.592 3.3299-0.444 5.9199-3.625 5.9199-7.547z" fill="#FFB087"/>
<path d="m119.73 188.41s23.308 5.845 14.132 22.42" stroke="#C78D42" stroke-miterlimit="10" stroke-width=".73994"/>
<path d="m108.18 235.32s6.068-1.184 6.956 1.184c0 0 1.998-3.33 3.552 1.258 0 0-3.922 2.59-5.772 2.368-1.776-0.222-4.736-4.81-4.736-4.81z" fill="#5955BD"/>
<path d="m95.234 236.72c0.8879 0.962 1.4059 2.22 1.4059 3.626 0 2.959-2.3678 5.327-5.3276 5.327s-5.3276-2.368-5.3276-5.327c0-2.96 2.3678-5.328 5.3276-5.328" stroke="#38251F" stroke-miterlimit="10" stroke-width=".73994"/>
<path d="m130.16 268.91c-3.404-6.215-13.837-10.285-13.837-10.285l-11.913 13.689-11.913-13.689s-10.433 4.144-13.837 10.285l17.981 11.618 7.7698-4.736 7.769 4.736 17.981-11.618z" fill="#F0714C"/>
<path d="m78.734 269.58 17.907 11.692 8.2137-8.066 8.139 7.326 16.131-10.952" stroke="#38251F" stroke-miterlimit="10" stroke-width=".73994"/>
<path d="m106.7 282.45c0 0.666-0.591 1.258-1.257 1.258s-1.258-0.592-1.258-1.258 0.592-1.257 1.258-1.257 1.257 0.591 1.257 1.257z" stroke="#38251F" stroke-miterlimit="10" stroke-width=".73994"/>
<path d="m106.7 289.41c0 0.666-0.591 1.258-1.257 1.258s-1.258-0.592-1.258-1.258 0.592-1.258 1.258-1.258 1.257 0.518 1.257 1.258z" stroke="#38251F" stroke-miterlimit="10" stroke-width=".73994"/>
<path d="m46.99 280.53s7.3994-5.328 11.987-12.653l1.036 4.069-13.023 8.584z" fill="#FFB087"/>
<path d="m55.425 274.17s-16.797 10.729-17.685 19.609c-0.8879 8.805 3.2558 17.906 5.8456 14.798 2.5898-3.107-0.074-16.944-0.074-16.944l11.913-17.463z" fill="#FFB087"/>
<path d="m62.233 267.88s-15.687 12.357-15.687 21.236 5.0316 17.537 7.2515 14.207c2.2938-3.33-1.7019-16.797-1.7019-16.797l10.137-18.646z" fill="#FFB087"/>
<path d="m45.658 283.12s-4.6617 8.584-3.5518 10.656c1.11 1.997 1.9239 17.388 5.7716 17.314 3.8477-0.148 1.0359-11.617 0.592-13.985-0.518-2.367 7.6954-23.382 7.6954-23.382l-10.507 9.397z" fill="#FFB087"/>
<path d="m56.831 271.87c-0.518-3.034 5.9195-8.139 9.9152-6.363 0.074 0 2.0718 0.888 2.2938 2.664 0.444 3.107-5.1056 7.547-9.3233 6.289-0.2219-0.148-2.5898-0.888-2.8857-2.59z" fill="#FFB087"/>
<path d="m49.136 300.36s-2.8118-9.619-2.5898-11.691c0.2219-2.072 1.3319-6.586 1.3319-6.586" stroke="#38251F" stroke-miterlimit="10" stroke-width=".73994"/>
<path d="m44.548 305.91s-2.6638-12.431-2.6638-14.281c0.074-1.85 0.592-4.292 0.592-4.292" stroke="#38251F" stroke-miterlimit="10" stroke-width=".73994"/>
<path d="m63.565 308.42 2.2938 4.366s-11.469 18.277-4.0697 30.412" stroke="#38251F" stroke-miterlimit="10" stroke-width=".73994"/>
<path d="m148.66 305.84-2.442 3.329s12.136 22.199 4.884 35.37" stroke="#38251F" stroke-miterlimit="10" stroke-width=".73994"/>
<path d="m247.27 362.04c-14.069 3.908-30.327 2.814-43.927-2.501 1.719-7.191 1.407-14.851-0.626-22.042-1.876 6.722-4.689 13.288-6.565 19.853-8.286 2.189-17.353 1.095-25.482-1.407-4.064-5.627-1.563-13.756 2.502-19.384 4.064-5.628 9.692-10.63 11.88-17.196 2.814-8.285-0.156-17.821 3.44-25.794 3.282-7.347 11.099-11.255 18.603-14.226 7.347-2.97 15.476-5.94 20.009-12.506 5.003-6.878 4.846-16.101 6.722-24.543 3.127-14.07 12.35-26.576 24.856-33.767 12.507-7.191 25.951-10.943 36.893 0.157 9.849 10.005 23.137 17.665 25.325 31.421 2.658 16.102-4.689 32.516-2.032 48.618 2.814 17.821 16.883 31.734 21.886 49.087 1.251 4.533 1.876 9.692-0.782 13.6-3.283 5.002-10.161 5.784-16.258 6.097-25.325 1.25-51.9-2.345-76.444 4.533z" fill="#70411C"/>
<path d="m283.85 270.75-29.702-9.379c2.032 13.757-2.032 28.139-11.256 39.707 11.099 6.722 26.888 7.816 38.144 1.25-3.127-10.317-1.251-21.573 2.814-31.578z" fill="#F7AF7C"/>
<path d="m249.92 277.94c1.563 3.283 5.315 4.846 8.754 5.94 3.283 1.094 6.722 1.72 10.161 1.876 6.723 0.313 13.757-1.251 19.385-5.315 1.563-1.094 2.189-2.97 1.251-4.846-0.938-1.564-3.283-2.345-4.847-1.251-4.377 3.127-9.379 4.534-14.694 4.377-2.658 0-5.315-0.469-7.817-1.25-1.876-0.626-5.002-1.251-5.94-3.127-0.782-1.719-3.283-2.188-4.846-1.25-1.876 1.094-2.345 3.126-1.407 4.846z" fill="#E3A06F"/>
<path d="m300.26 261.99s7.348-54.089 8.285-69.409c0.938-15.32 12.194-67.064 11.569-68.784-0.626-1.876 13.287-0.312 13.287-0.312s-0.469 65.657-1.407 73.63c-0.937 7.972-3.595 68.627-7.503 80.821 0-0.157-20.01-5.941-24.231-15.946z" fill="#F7AF7C"/>
<path d="m250.86 226.82c-7.191 12.193-8.285 27.826-2.658 40.801 2.502 5.784 6.566 11.412 12.35 14.069 8.754 4.065 19.541 0.469 26.263-6.409 6.878-6.722 10.318-16.102 12.975-25.325 2.345-8.129 4.065-16.571 2.501-24.856-2.032-10.318-10.942-21.26-22.354-19.072-11.881 2.345-22.824 10.318-29.077 20.792z" fill="#F7AF7C"/>
<path d="m333.72 376.89c0.938-20.791-0.625-41.583-4.69-61.905-2.657-13.288-6.096-26.419-4.221-39.864-9.066-1.25-18.446-6.409-24.543-13.287-5.315 9.848-10.943 19.697-18.603 27.826-4.533 4.846-10.786 8.129-17.352 9.067s-13.444-0.469-19.228-3.908c-7.348 4.533-15.32 10.005-19.697 17.352-5.316 8.911-5.003 20.01-4.69 30.327 7.191 4.221 15.007 6.097 23.136 4.065 2.814 5.159 6.566 10.474 7.504 16.258 0.782 4.69 0.156 9.536-1.72 13.757 27.045 12.037 56.591 10.786 84.104 0.312z" fill="#A76DDF"/>
<path d="m310.74 306.08c-0.469-1.563-0.313-3.126 0.313-4.533h-2.189c0.469 1.719 0.469 3.439 0.156 5.158-0.156 0.626 0.157 1.251 0.782 1.407 0.625 0.157 1.251-0.156 1.407-0.781 0.313-0.782 0.625-1.72 1.251-2.189 0.156-0.156 0.312-0.156 0.312-0.156 0.157 0 0.157 0 0.313-0.157h0.156c0.313 0 0.469 0 0.782 0.313 0.156-0.625 0.156-1.251 0.313-1.876-1.72 0.782-3.44 1.563-5.159 2.501-0.782 0.313-0.782 1.564 0 2.033l2.814 1.407c0.469 0.312 0.938 0.625 1.094 0.938 0-0.157 0.313 0 0 0h-0.156c-0.313 0-0.469-0.157-0.626-0.469-0.625-0.626-0.938-1.407-1.719-2.033-0.626-0.469-1.72-0.469-1.876 0.469-0.156 1.095-0.782 1.876-1.876 2.345l1.407 1.407c0.156-1.563 0.938-2.814 1.876-4.064 0.625-0.626 0.156-2.033-0.782-2.033-1.094 0.157-2.345 0-3.439-0.469-0.156 0.782-0.156 1.407-0.313 2.189 1.095-0.156 2.345 0 3.439 0.313 0.626 0.156 1.251-0.157 1.407-0.782 0.157-0.625-0.156-1.251-0.781-1.407-1.563-0.469-3.127-0.625-4.69-0.313-0.938 0.157-1.094 1.72-0.313 2.189 1.407 0.625 2.971 0.938 4.534 0.782-0.313-0.626-0.625-1.251-0.782-2.033-1.25 1.407-2.188 3.127-2.501 5.003-0.156 0.781 0.469 1.719 1.407 1.407 1.719-0.626 3.126-2.032 3.439-3.908-0.625 0.156-1.251 0.312-1.876 0.469 0.938 0.781 1.407 2.032 2.501 2.657 1.095 0.625 2.658 0.625 3.44-0.469 0.938-1.25 0.312-2.97-0.782-3.752-1.094-0.938-2.501-1.407-3.752-2.032v2.032c1.72-0.781 3.439-1.563 5.159-2.501 0.782-0.313 0.625-1.251 0.313-1.876-1.095-1.094-2.814-1.094-4.065-0.469-1.407 0.782-2.032 2.345-2.658 3.752 0.782 0.156 1.564 0.469 2.189 0.625 0.469-2.032 0.469-4.22-0.156-6.253-0.157-0.469-0.626-0.781-1.095-0.781-0.625 0-0.938 0.312-1.094 0.781-0.781 1.876-0.938 3.908-0.313 5.784 0.313 1.407 2.502 0.782 2.189-0.625z" fill="#fff"/>
<path d="m271.97 305.61c-1.094-0.625-1.876-1.719-2.189-2.97-0.625 0.313-1.25 0.782-1.875 1.094 0.781 0.938 1.563 2.033 2.188 3.127 0.625 0.938 2.189 0.625 2.189-0.625 0-1.251 0.625-2.502 1.876-2.971-0.469-0.469-1.095-1.094-1.564-1.563-0.781 1.407-1.719 2.814-2.657 4.221-0.469 0.782 0.156 1.72 0.938 1.72 1.407 0.156 2.814 0.312 4.221 0.312-0.157-0.781-0.157-1.563-0.313-2.345-1.094 0.469-2.345 0.626-3.439 0.469-0.626 0-1.095 0.626-1.095 1.095-0.156 1.406-0.469 2.657-0.937 3.908 0.625-0.157 1.094-0.469 1.719-0.626 0 0-0.156 0-0.156-0.156 0 0-0.157-0.156 0 0-0.157 0-0.157-0.156-0.157-0.313-0.156-0.156-0.156-0.469-0.156-0.781 0-0.782 0.469-1.407 0.938-2.032 0.625-0.938-0.625-2.189-1.563-1.564-0.938 0.469-2.032 0.626-2.97 0.469 0.156 0.782 0.156 1.407 0.312 2.189 1.095-0.469 2.345-0.469 3.439-0.156 0.626 0.156 1.251-0.313 1.407-0.782 0.157-0.625-0.156-1.251-0.781-1.407-1.72-0.625-3.596-0.469-5.315 0.313-0.938 0.469-0.626 1.876 0.312 2.188 1.564 0.469 3.283 0.156 4.846-0.625l-1.563-1.563c-0.625 1.094-1.407 2.188-1.251 3.595 0 1.251 0.626 2.501 1.876 2.97 0.782 0.313 1.407 0 1.72-0.625 0.625-1.407 0.938-2.97 1.094-4.533l-1.094 1.094c1.407 0.156 2.814 0 4.065-0.469 1.25-0.469 1.094-2.189-0.313-2.345s-2.814-0.313-4.221-0.313c0.313 0.626 0.625 1.095 0.938 1.72 0.938-1.407 1.876-2.814 2.658-4.221 0.312-0.469 0.156-1.094-0.157-1.407-0.312-0.313-0.938-0.469-1.407-0.156-1.876 0.938-3.126 2.97-2.97 5.002 0-0.469 0.625-0.625 1.407-0.938-0.782-1.094-1.563-2.345-2.501-3.439-0.782-0.938-2.345 0-1.876 1.094 0.625 1.72 1.72 3.283 3.283 4.378 0.469 0.312 1.25 0.156 1.563-0.469 0.313-0.626 0-1.251-0.469-1.564z" fill="#fff"/>
<path d="m305.11 267.93c-1.563 1.095-3.126 2.345-4.377 3.752-0.782 0.782 0 2.345 1.094 1.876 2.345-0.625 4.377-2.188 5.628-4.377-0.782-0.313-1.407-0.625-2.189-0.938-0.312 1.094-0.625 2.189-0.468 3.283 0.156 0.938 0.781 1.876 1.719 2.188 0.625 0.313 1.563 0.157 1.72-0.625 0.312-1.407 0.469-2.814 0.781-4.064h-2.188c0.312 1.719 1.876 2.97 3.595 2.814 1.095 0 1.564-1.564 0.626-2.189-2.345-1.251-4.534-2.501-6.879-3.908-1.25-0.782-2.501 1.25-1.25 2.032 2.344 1.251 4.533 2.501 6.878 3.908 0.156-0.781 0.469-1.407 0.625-2.188h-0.312-0.157c-0.312 0 0 0-0.156-0.157 0 0-0.313-0.156-0.156-0.156-0.157 0-0.157-0.156-0.313-0.313 0.156 0.157-0.156-0.156-0.156-0.156v-0.156c0-0.157 0-0.313-0.157-0.469-0.156-1.095-2.032-1.095-2.188 0-0.313 1.407-0.469 2.814-0.782 4.064 0.625-0.156 1.094-0.469 1.72-0.625l-0.313-0.156c-0.156-0.157 0 0-0.156-0.157l-0.157-0.156s-0.156-0.469 0-0.156c-0.156-0.626 0.157-1.407 0.469-2.033 0.469-1.25-1.407-2.032-2.188-0.938-0.938 1.564-2.501 2.814-4.221 3.283 0.313 0.626 0.782 1.251 1.094 1.876 1.251-1.25 2.501-2.501 3.908-3.439 0.469-0.313 0.782-1.094 0.469-1.563-0.312-0.313-1.094-0.469-1.563-0.157z" fill="#fff"/>
<path d="m237.26 300.45c0.782 0.469 1.564 0.938 2.345 1.407 0.157 0.157 0.469 0.313 0.626 0.313 0 0 0.156 0.156 0.156 0l0.156 0.156s-0.156-0.469-0.156-0.312c0-0.157 0-0.313 0.156-0.313 0 0 0.313-0.156 0.157-0.156 0.156-0.157 0.156 0 0 0-0.157 0 0.156 0 0 0h-0.157c0.157 0 0.157 0 0 0-0.312-0.157 0.157 0.156 0 0-0.156-0.157-0.312-0.157-0.469-0.313 0.157 0.156 0 0 0 0l-0.156-0.156-0.156-0.157c-0.313-0.312 0 0.157 0-0.156-0.157-0.156-0.157-0.313-0.313-0.469-0.156-0.313-0.469-0.625-0.625-1.094-0.313-0.469-0.938-0.626-1.407-0.469-0.626 0.312-0.782 0.781-0.626 1.407 0.313 1.876 0 4.064-0.938 5.784 0.782 0.156 1.407 0.156 2.189 0.312-0.782-2.032-1.094-3.908-0.938-5.94 0-0.625-0.469-1.094-0.938-1.094-0.625 0-1.094 0.312-1.251 0.781v0.157 0c-0.156 0.156 0.157-0.157 0 0l-0.156 0.156c0.156-0.156 0 0 0 0s-0.156 0-0.156 0.156h-0.156c-0.157 0 0.312 0 0 0 0.312 0.626 0.625 1.251 0.781 2.033 0.938-0.782 2.189-1.407 3.127-1.876 0.625-0.157 0.938-0.782 0.781-1.407-0.156-0.626-0.781-1.095-1.407-0.782-1.563 0.625-2.97 1.407-4.22 2.501-0.782 0.626-0.157 2.033 0.781 2.033 1.407 0 2.658-0.938 2.97-2.345-0.781-0.157-1.563-0.157-2.345-0.313-0.156 2.189 0.157 4.533 0.938 6.566 0.157 0.469 0.469 0.781 0.938 0.781s0.938-0.156 1.095-0.625c1.094-2.345 1.563-5.002 1.094-7.504-0.782 0.313-1.407 0.626-2.189 0.938 0.469 0.938 1.095 1.876 1.876 2.658 0.938 0.781 2.189 1.251 3.283 0.625 0.625-0.312 0.938-0.781 0.938-1.563s-0.469-1.251-0.938-1.72c-0.938-0.781-2.188-1.25-3.126-1.876-0.469-0.312-1.251-0.156-1.564 0.469-0.781 0.469-0.625 1.095 0 1.407z" fill="#fff"/>
<path d="m310.74 307.33c-0.156 0-0.156 0 0 0v0.312c0 0.157 0 0.157-0.156 0.313 0 0.156-0.157 0.156-0.157 0.313-0.156 0-0.156 0.156-0.312 0.156-0.157 0-0.157 0-0.313 0.156h0.156-0.312 0.156-0.313 0.157c-0.157 0-0.157 0-0.313-0.156-0.156 0-0.156-0.156-0.313-0.156 0-0.157-0.156-0.157-0.156-0.313s0-0.156-0.156-0.313v-0.312-0.313 0.469c0 0.156 0 0.313 0.156 0.469 0 0.156 0.156 0.313 0.313 0.313 0.156 0.156 0.312 0.156 0.469 0.156h0.312c0.157 0 0.469 0 0.626-0.156 0.156 0 0.156-0.157 0.312-0.157 0.157-0.156 0.313-0.312 0.313-0.469v-0.312-0.626c-0.156-0.312-0.313-0.312-0.469-0.469-0.156 0-0.156-0.156-0.313-0.156h-0.156-0.469-0.313-0.312c-0.157 0-0.313 0.156-0.313 0.156-0.156 0-0.156 0.157-0.156 0.313 0 0-0.157 0.156-0.157 0.313v0.312c0 0.157 0 0.313 0.157 0.469 0 0.157 0.156 0.313 0.312 0.313 0.157 0.156 0.157 0.156 0.313 0.313 0.156 0 0.313 0.156 0.469 0.156h0.313c0.156 0 0.312-0.156 0.469-0.313 0-0.156 0.156-0.156 0.156-0.312-0.156-0.157-0.156-0.313 0-0.469z" fill="#FFBD42"/>
<path d="m270.87 307.02c-0.157 0-0.157 0 0 0v0.313-0.313 0.469-0.156c0 0.156 0 0.156-0.157 0.312v-0.156c0 0.156-0.156 0.156-0.156 0.313 0 0 0-0.157 0.156-0.157-0.156 0-0.156 0.157-0.312 0.157h0.156c-0.156 0-0.156 0-0.313 0.156h0.157-0.313 0.156-0.312 0.469c0.156 0 0.312 0 0.469-0.156 0.156 0 0.312-0.157 0.312-0.313 0.157-0.156 0.157-0.313 0.157-0.469v-0.312c0-0.157 0-0.469-0.157-0.626 0-0.156-0.156-0.156-0.156-0.312-0.156-0.157-0.313-0.313-0.469-0.313h-0.313-0.469c-0.156 0-0.312 0.156-0.469 0.156-0.156 0.157-0.312 0.157-0.312 0.313-0.157 0.156-0.313 0.469-0.469 0.782v0.312 0.313c0 0.156 0.156 0.312 0.156 0.469 0.156 0.156 0.156 0.156 0.313 0.312 0.156 0.157 0.312 0.157 0.469 0.157h0.469c0.156 0 0.156 0 0.312-0.157 0.157-0.156 0.313-0.312 0.469-0.469 0-0.156 0-0.156 0.157-0.312v-0.313z" fill="#FFBD42"/>
<path d="m236.79 301.86c1.564 0 1.564-2.345 0-2.345-1.406 0.157-1.406 2.345 0 2.345z" fill="#FFBD42"/>
<path d="m306.05 269.97c0.313 0.156 0.469 0.312 0.782 0.469-0.156-0.157-0.313-0.469-0.469-0.626v-0.312-0.313c0-0.156 0-0.156 0.156-0.313 0-0.156 0.157-0.156 0.157-0.312 0.156 0 0.156-0.156 0.312-0.156 0.157 0 0.157 0 0.313-0.157h0.313 0.312c0.157 0 0.156 0 0.313 0.157 0.156 0 0.156 0.156 0.312 0.156 0 0.156 0.157 0.156 0.157 0.312 0 0.157 0 0.157 0.156 0.313v0.313 0.312c0 0.157 0 0.157-0.156 0.313 0 0.156-0.157 0.156-0.157 0.313-0.156 0-0.156 0.156-0.312 0.156-0.157 0-0.156 0-0.313 0.156h0.157-0.313 0.156-0.312c0.156 0 0.312 0.157 0.469 0.157h0.468 0.313 0.156s0.157 0 0.157-0.157c0.312-0.156 0.469-0.469 0.469-0.625v-0.469c0-0.156 0-0.313-0.156-0.469-0.157-0.312-0.47-0.469-0.626-0.469-0.312 0-0.625 0-0.938 0.156 0.157 0 0.156 0 0.313-0.156h-0.156 0.312-0.156 0.312c-0.156 0-0.156 0-0.312-0.156h-0.156-0.469-0.313c-0.156 0-0.156 0.156-0.313 0.156l-0.156 0.156s-0.156 0-0.156 0.157c0 0.156-0.157 0.156-0.157 0.312 0 0 0 0.157-0.156 0.157v0.469c-0.313-0.313-0.313-0.157-0.313 0 0.157 0 0.157 0 0 0 0.157 0.156 0.157 0.312 0.313 0.312 0 0 0.156 0.157 0.313 0.157 0.156 0 0.156 0.156 0.312 0.156h0.469 0.157c0.156 0 0.312-0.156 0.469-0.156 0.156-0.157 0.156 0 0.156-0.157 0.156-0.156 0.156-0.312 0.156-0.469v-0.312-0.313-0.156c0-0.157 0-0.157-0.156-0.313 0-0.156-0.156-0.156-0.156-0.156s-0.157 0-0.157-0.156h-0.156l-0.156-0.157c-0.157-0.156-0.313-0.156-0.469-0.312-0.157-0.157-0.313-0.157-0.469-0.157h-0.469c-0.313 0-0.626 0.313-0.626 0.469-0.156 0.313-0.156 0.626-0.156 0.938 0 0.156 0 0.156 0.156 0.313 0.157 0.156 0.313 0.312 0.469 0.469z" fill="#FFBD42"/>
<path d="m319.96 127.4c-1.094-6.879-7.347-16.727-9.223-23.449-0.156-0.782-0.313-1.876 0.469-2.345s1.72 0 2.345 0.469c1.72 1.25 3.595 2.345 5.315 3.595 0.313-6.2527 0.782-12.35 1.094-18.446 0-0.6253 0-1.407 0.313-2.0323s0.938-1.0943 1.563-1.0943c1.251 0 1.72 1.7197 1.876 2.9703 0.469 4.3771 0.782 8.5979 1.251 12.976 0.938-4.6902 2.032-9.5363 2.97-14.226 0.313-1.2506 0.782-2.6575 2.032-2.8138 0.782 0 1.407 0.6253 1.72 1.2506 0.312 0.6253 0.312 1.5632 0.312 2.1885 0 4.6898 0.157 9.3797 0.157 13.913 0.938-3.4389 1.719-6.7218 2.657-10.161 0.157-0.938 0.469-1.7196 0.938-2.5012 0.626-0.6253 1.564-1.0943 2.345-0.938 1.407 0.469 1.407 2.5012 1.251 3.9082-0.625 4.0645-1.251 8.129-1.876 12.35 1.25-2.189 2.501-4.5337 3.752-6.7223 0.469-0.9379 1.25-2.0322 2.345-2.1885 1.094-0.1564 2.032 0.9379 2.188 2.0322 0.157 1.0943-0.156 2.1886-0.469 3.2829-2.97 9.3797-7.816 17.822-12.506 29.39l-12.819-1.407z" fill="#F7AF7C"/>
<path d="m240.7 261.52c2.814-6.566 5.628-13.131 8.441-19.541 1.72-4.064 3.596-8.129 6.722-10.943 3.283-2.813 7.504-4.22 11.725-5.158s8.442-1.564 12.35-3.596c3.908-1.876 7.347-5.315 7.972-9.536-2.501 3.596-0.781 10.161 1.407 14.07 2.189 3.908 5.159 7.347 6.41 11.724 0.781 3.283 0.469 6.566 0.156 10.005-0.625 6.409 1.094 11.256 0.469 17.509 4.377-9.849 5.941-17.509 8.129-28.139 1.251-6.41 2.032-12.975-0.156-19.072-2.97-8.598-11.881-14.695-21.104-15.32-9.224-0.782-18.291 3.126-25.013 9.38-6.722 6.253-11.255 14.538-14.225 23.292-2.658 7.817-3.283 16.727-3.283 25.325z" fill="#70411C"/>
<path d="m286.04 214.94c0 4.377-3.439 8.129-7.347 10.161s-8.442 2.501-12.662 3.595c-4.221 0.938-8.598 2.658-11.569 5.941-2.657 3.283-3.751 7.816-7.191 10.317-1.876 1.407-4.064 2.033-6.096 2.971-2.033 1.094-3.908 2.97-3.908 5.158" stroke="#70411C" stroke-miterlimit="10" stroke-width=".46476"/>
<path d="m278.84 264.03c-6.253-0.938-12.349-1.876-18.602-2.814 0.312 4.534 3.751 8.442 8.285 9.067 4.377 0.782 8.598-2.032 10.317-6.253z" fill="#fff"/>
<path d="m253.21 244.02c1.876-1.72 4.533-2.502 7.035-1.876 2.501 0.625 4.533 2.501 5.471 4.846-3.283-3.283-8.285-4.377-12.506-2.97z" fill="#1E2329"/>
<path d="m291.04 250.9c-1.251-2.189-3.596-3.752-6.097-3.908s-5.002 0.938-6.565 2.814c3.908-2.032 9.066-1.407 12.662 1.094z" fill="#1E2329"/>
<path d="m260.56 253.08c-0.312 1.25-2.501 1.875-4.846 1.25s-3.908-2.188-3.595-3.439c0.312-1.251 2.501-1.876 4.846-1.251 2.345 0.626 3.908 2.033 3.595 3.44z" fill="#FF8A78"/>
<path d="m289.01 256.68c-0.157 1.407-2.189 2.189-4.534 2.032-2.345-0.156-4.221-1.407-4.064-2.814 0.156-1.406 2.188-2.188 4.533-2.032 2.345 0.157 4.221 1.407 4.065 2.814z" fill="#FF8A78"/>
<path d="m267.9 257.93c1.719 1.406 4.22 1.719 6.253 0.938" stroke="#C98858" stroke-linecap="round" stroke-miterlimit="10" stroke-width=".92968"/>
<path d="m255.86 236.04c-0.625 0.156-1.25 0.469-1.719 0.781-0.469 0.469-0.782 1.095-0.626 1.72 0.157 0.782 0.939 1.094 1.72 1.094 0.782 0 1.407-0.156 2.189-0.312 1.563-0.313 3.126-0.157 4.533 0.156 1.094 0.313 2.189 0.782 3.283 0.625 0.938 0 2.501-1.094 1.876-2.188-0.469-0.782-2.501-1.564-3.439-1.72-2.345-0.782-5.315-0.938-7.817-0.156z" fill="#705037"/>
<path d="m291.98 241.83c0.625 0.313 1.094 0.625 1.407 1.251 0.312 0.469 0.469 1.25 0.156 1.876-0.469 0.625-1.25 0.781-2.032 0.625-0.782-0.157-1.407-0.469-2.032-0.938-1.407-0.625-2.971-0.938-4.377-0.938-1.095 0-2.345 0.156-3.283-0.156-0.782-0.313-2.189-1.72-1.407-2.658 0.625-0.782 2.814-0.782 3.752-0.938 2.657 0 5.315 0.625 7.816 1.876z" fill="#705037"/>
<path d="m245.24 241.98c1.72-8.754 6.097-15.476 11.568-20.166 5.472-4.69 11.256-6.722 18.447-6.722s14.382 3.283 18.759 9.067c3.283 4.377 4.69 9.849 4.846 15.32 0.313 5.471-0.156 8.285-1.094 13.757 2.97-1.876 3.752-11.412 3.908-18.603 0.157-7.191-2.032-14.695-7.191-19.541-6.097-5.628-15.007-6.878-24.231-5.628-5.315 0.782-9.848 2.033-15.632 7.191-4.69 4.221-11.568 15.164-12.819 23.918l3.439 1.407z" fill="#FF7E47"/>
<path d="m248.67 244.33c0.469-1.563-0.156-3.283-1.407-4.377-1.25-1.094-2.97-1.407-4.533-0.782-2.345 0.938-3.439 3.44-3.752 5.941-0.313 2.188-0.156 4.69 1.094 6.565 1.251 1.876 3.752 3.127 5.785 2.345l2.813-9.692z" fill="#F7AF7C"/>
<path d="m246.02 242.77c0-1.094-0.938-2.032-2.032-2.032-1.095-0.157-2.189 0.469-2.814 1.25-0.625 0.782-0.938 1.876-1.094 2.971-0.157 1.25-1e-3 2.501 0.468 3.751 0.469 1.095 1.407 2.189 2.658 2.658" stroke="#C98858" stroke-linecap="round" stroke-miterlimit="10" stroke-width=".92968"/>
<path d="m244.14 246.99c-0.782-0.157-1.563-0.625-2.032-1.407s-1.251-2.814-0.938-3.596" stroke="#C98858" stroke-linecap="round" stroke-miterlimit="10" stroke-width=".92968"/>
<path d="m293.07 251.21c0.156-1.564 1.407-2.971 2.814-3.596 1.563-0.469 3.283-0.156 4.533 0.938 1.72 1.72 1.876 4.534 1.251 6.878-0.469 2.189-1.563 4.378-3.439 5.628-1.876 1.251-4.534 1.563-6.253 0l1.094-9.848z" fill="#F7AF7C"/>
<path d="m296.2 250.58c0.469-0.938 1.719-1.407 2.657-1.094 1.095 0.313 1.72 1.251 2.033 2.189 0.312 1.094 0.156 2.188-0.157 3.126-0.312 1.251-0.938 2.345-1.876 3.283s-2.188 1.407-3.439 1.407" stroke="#C98858" stroke-linecap="round" stroke-miterlimit="10" stroke-width=".92968"/>
<path d="m296.35 255.27c0.782 0.157 1.72 0 2.345-0.469s2.189-2.188 2.189-3.126" stroke="#C98858" stroke-linecap="round" stroke-miterlimit="10" stroke-width=".92968"/>
<path d="m282.6 202.75c-22.042-1.407-44.084 14.226-50.024 35.486-2.501 8.911-2.502 18.916-8.129 26.263-8.598 11.412-26.888 12.507-34.079 24.856-4.69 8.129-2.814 18.76-6.41 27.514-2.345 5.628-6.878 10.161-10.317 15.32-3.283 5.159-5.472 12.037-2.502 17.509" stroke="#70411C" stroke-miterlimit="10" stroke-width=".46476"/>
<path d="m401.09 213.38c0 2.501-2.032 4.689-4.69 4.689-2.501 0-4.69-2.032-4.69-4.689 0-2.502 2.032-4.69 4.69-4.69 2.658 0.156 4.69 2.188 4.69 4.69z" fill="#FFBD42"/>
<path d="m450.18 265.9c0 2.971-2.501 5.472-5.471 5.472s-5.471-2.501-5.471-5.472c0-2.97 2.501-5.471 5.471-5.471s5.471 2.501 5.471 5.471z" fill="#FF7E47"/>
<path d="m247.58 237.14c7.66-12.506 24.543-23.293 39.238-18.446 0.469 0.156 0.782-0.626 0.156-0.782-8.754-3.596-17.508-5.003-26.106 0-7.817 4.377-11.099 11.099-14.07 19.072 0 0.312 0.626 0.469 0.782 0.156z" fill="#E8E8E8"/>
<path d="m289.32 220.72c4.065 10.63 7.191 24.23 4.065 35.486-1.72 6.253-5.315 11.568-9.38 16.571-2.814 3.439-6.566 6.253-7.191 10.942-0.156 1.095 0.625 2.345 2.032 2.033 12.975-4.065 22.042-17.822 24.544-30.64 1.25-6.566 1.094-13.601-0.938-20.01-2.189-7.191-5.941-10.943-11.881-15.008-0.782-0.468-1.563 0-1.251 0.626z" fill="#E8E8E8"/>
<path d="m322.46 275.91c-10.161 11.881-7.347 25.169-4.064 39.082 2.032 8.285 4.533 16.571 6.878 24.7 2.658 9.223 3.596 18.759 5.628 27.982 0.469 2.189 4.221 1.72 4.065-0.469-0.782-14.226-2.814-28.764-5.003-42.833-2.189-14.226-12.037-32.985-5.002-46.742 0.625-1.407-1.251-3.127-2.502-1.72z" fill="#E8E8E8"/>
<path d="m244.77 262.93c-0.781 3.439 0 5.94 0.469 9.38 1.094 7.816-1.719 11.88-7.816 15.632-7.035 4.534-14.695 7.348-19.072 15.008-3.752 6.565-4.377 14.225-4.69 21.729-0.469 10.943-0.469 22.042 0 33.141 0.156 2.814 4.065 2.814 4.221 0 1.407-19.228-3.752-46.116 15.633-57.528 6.409-3.752 13.444-7.191 16.57-14.382 1.095-2.501 1.876-5.471 1.564-8.285-0.626-5.472-6.097-9.067-5.785-14.695 0.157-0.469-0.937-0.625-1.094 0z" fill="#E8E8E8"/>
<path d="m51.62 161.6c0.506-1.003 0.506-2.199 0-3.202l-0.5241-1.038c-0.1142-0.226-0.1541-0.478-0.1155-0.729l0.1776-1.149c0.1716-1.109-0.1982-2.247-0.9893-3.044l-0.819-0.826c-0.1786-0.179-0.2945-0.407-0.335-0.657l-0.1861-1.148c-0.1779-1.096-0.8677-2.055-1.8486-2.572l-1.0078-0.595c-0.0195-0.011-0.0393-0.022-0.0594-0.033-0.2254-0.115-0.4058-0.296-0.5217-0.521l-0.5318-1.034c-0.5013-0.975-1.5237-1.696-2.6681-1.882l-1.1477-0.186c-0.2502-0.041-0.4776-0.157-0.6575-0.335l-0.8252-0.819c-0.7969-0.791-1.9349-1.161-3.0447-0.99l-1.149 0.178c-0.2508 0.039-0.5027-1e-3 -0.7289-0.115l-1.038-0.524c-1.0023-0.506-2.199-0.507-3.2013 0l-1.038 0.524c-0.2262 0.114-0.4781 0.154-0.7289 0.115l-1.149-0.178c-1.1099-0.171-2.2479 0.199-3.0447 0.99l-0.8253 0.819c-0.1799 0.178-0.4073 0.294-0.6575 0.335l-1.1478 0.186c-1.1444 0.186-2.1667 0.907-2.6681 1.882l-0.5317 1.034c-0.1159 0.225-0.2963 0.406-0.5218 0.521l-1.0341 0.532c-0.9751 0.502-1.6961 1.524-1.8817 2.668l-0.1862 1.148c-0.0405 0.25-0.1564 0.478-0.335 0.658l-0.819 0.825c-0.791 0.797-1.1608 1.935-0.9893 3.044l0.1777 1.15c0.0387 0.25-0.0012 0.502-0.1155 0.728l-0.524 1.038c-0.506 1.003-0.506 2.199 0 3.202l0.524 1.038c0.1142 0.226 0.1542 0.478 0.1155 0.728l-0.1777 1.15c-0.1715 1.109 0.1984 2.247 0.9893 3.044l0.8191 0.825c0.1787 0.18 0.2945 0.408 0.3351 0.658l0.1862 1.148c0.1855 1.144 0.9066 2.166 1.8817 2.668l1.034 0.531c0.2255 0.116 0.4059 0.297 0.5218 0.522l0.5317 1.034c0.5014 0.975 1.5238 1.697 2.6681 1.882l1.1478 0.186c0.2502 0.041 0.4776 0.157 0.6574 0.335l0.8253 0.819c0.7971 0.791 1.9351 1.161 3.0447 0.99l1.1491-0.178c0.2504-0.039 0.5026 1e-3 0.7288 0.115l1.038 0.525c0.5011 0.253 1.0509 0.379 1.6006 0.379 0.5498 0 1.0996-0.126 1.6007-0.379l1.038-0.525c0.2262-0.114 0.4784-0.154 0.7288-0.115l1.1491 0.178c1.1096 0.171 2.2477-0.199 3.0447-0.99l0.8252-0.819c0.1798-0.178 0.4072-0.294 0.6575-0.335l1.1477-0.186c1.096-0.178 2.0551-0.868 2.5727-1.849l0.5944-1.007c0.0115-0.02 0.0224-0.04 0.0327-0.06 0.1159-0.225 0.2964-0.406 0.5218-0.522l1.034-0.531c0.9985-0.514 1.702-1.482 1.8818-2.59l0.1861-1.148c0.0406-0.25 0.1564-0.478 0.335-0.657 0.0124-0.013 0.8396-0.925 0.8396-0.925 0.7769-0.795 1.1388-1.924 0.9687-3.023l-0.1776-1.15c-0.0387-0.25 0.0012-0.502 0.1155-0.728l0.5241-1.038z" fill="url(#paint0_linear_364:421)"/>
<path d="m32 177c9.3888 0 17-7.611 17-17s-7.6112-17-17-17-17 7.611-17 17 7.6112 17 17 17z" fill="url(#paint1_linear_364:421)"/>
<path d="m32 177c9.3888 0 17-7.611 17-17s-7.6112-17-17-17-17 7.611-17 17 7.6112 17 17 17z" fill="#05419A"/>
<path d="m32 177c9.3888 0 17-7.611 17-17s-7.6112-17-17-17-17 7.611-17 17 7.6112 17 17 17z" fill="url(#paint2_radial_364:421)"/>
<path d="m34.41 166.8c0.816 0.826 1.6227 1.647 2.4161 2.457 1.3577-0.033 2.7153-0.079 4.0729-0.139 0.4495-0.02 0.8334-0.403 0.8551-0.852 0.0257-0.544 0.049-1.087 0.0698-1.63-2.4713 0.088-4.9426 0.142-7.4139 0.164z" fill="#D5E399"/>
<path d="m41.072 164.21c-1.3837 0.029-2.7674 0.051-4.1511 0.067-0.8404 0.839-1.6784 1.681-2.51 2.522 0.8211 0.271 1.6396 0.537 2.4548 0.797 1.3683-0.027 2.7367-0.065 4.105-0.115 0.453-0.017 0.8366-0.396 0.8541-0.846 0.0209-0.543 0.0394-1.086 0.0553-1.629 0.0135-0.449-0.3495-0.806-0.8081-0.796z" fill="#2FA594"/>
<path d="m22.054 166.64c0.0209 0.543 0.0442 1.086 0.0699 1.63 0.0217 0.449 0.4056 0.831 0.855 0.852 4.616 0.204 9.2319 0.25 13.848 0.139 0.0141-0.554 0.027-1.107 0.0386-1.66-4.9202-0.179-9.8582-0.515-14.811-0.961z" fill="url(#paint3_linear_364:421)"/>
<path d="m22.808 164.21c-0.4586-9e-3 -0.8215 0.347-0.808 0.796 0.0159 0.543 0.0344 1.086 0.0552 1.629 0.0176 0.45 0.4011 0.829 0.8542 0.846 4.6523 0.169 9.3048 0.207 13.957 0.115 0.0233-1.106 0.0417-2.213 0.0553-3.319-4.7046 0.053-9.4092 0.031-14.114-0.067z" fill="url(#paint4_linear_364:421)"/>
<path d="m30.291 166.8c0.0032 0.461 0.3734 0.837 0.8265 0.838 0.4531 2e-3 0.8206-0.372 0.821-0.833 3e-4 -0.461-0.3697-0.835-0.8262-0.836-0.4566-1e-3 -0.8245 0.37-0.8213 0.831z" fill="url(#paint5_linear_364:421)"/>
<path d="m26.998 166.77c0.0089 0.458 0.3845 0.837 0.8376 0.845 0.453 7e-3 0.8154-0.361 0.8099-0.821s-0.3796-0.836-0.836-0.842-0.8205 0.36-0.8115 0.818z" fill="url(#paint6_linear_364:421)"/>
<path d="m23.703 166.69c0.0146 0.453 0.3955 0.832 0.8486 0.846 0.4532 0.014 0.8102-0.346 0.7989-0.803-0.0112-0.456-0.3892-0.833-0.8458-0.844-0.4566-0.01-0.8164 0.348-0.8017 0.801z" fill="url(#paint7_linear_364:421)"/>
<path d="m33.588 166.8c-0.0025 0.461 0.3623 0.832 0.8155 0.828 0.4531-5e-3 0.826-0.383 0.8321-0.842 6e-3 -0.46-0.36-0.829-0.8165-0.825-0.4565 3e-3 -0.8284 0.378-0.8311 0.839z" fill="url(#paint8_linear_364:421)"/>
<path d="m38.657 156.77c0.0364 3.662-3.0262 6.694-6.7201 6.703-3.6939-9e-3 -6.7565-3.041-6.7201-6.703 0.0545-3.66 3.1171-6.759 6.7201-6.767 3.603 8e-3 6.6656 3.107 6.7201 6.767z" fill="url(#paint9_linear_364:421)"/>
<path d="m31.942 156.96v-2.922c-0.8998-0.524-1.7956-1.044-2.6853-1.559-1.3979 0.913-2.3543 2.496-2.3686 4.278-6e-4 0.074 9e-4 0.147 0.0034 0.22 1.6835-0.012 3.367-0.017 5.0505-0.017z" fill="url(#paint10_linear_364:421)"/>
<path d="m29.612 155.39c-0.9056 0.528-1.8138 1.056-2.7229 1.583 0.0656 1.846 1.1539 3.437 2.7132 4.254 0.7791 1e-3 1.5582 2e-3 2.3373 2e-3 -0.7791-1.948-1.5619-3.897-2.3276-5.839z" fill="url(#paint11_linear_364:421)"/>
<path d="m31.942 156.74c-0.7778 0.45-1.5573 0.901-2.3373 1.352-2e-3 1.047-2e-3 2.093 0 3.14 0.7 0.365 1.4947 0.573 2.3373 0.573 1.0006 0 1.934-0.293 2.7209-0.795 0.0027-1.422 0.0012-2.843-0.0048-4.265-0.9053-3e-3 -1.8107-5e-3 -2.7161-5e-3z" fill="url(#paint12_linear_364:421)"/>
<path d="m31.94 159.44c0.9074 0.524 1.8149 1.047 2.7209 1.569 1.4102-0.902 2.3479-2.469 2.3331-4.252-6e-4 -0.073-0.0031-0.147-0.0068-0.219-1.5106-0.012-3.0211-0.019-4.5317-0.02-0.171 0.974-0.3432 1.948-0.5155 2.922z" fill="url(#paint13_linear_364:421)"/>
<path d="m34.276 158.09c0.9056-0.521 1.8094-1.04 2.7098-1.554-0.096-1.847-1.1998-3.456-2.7419-4.282-0.5986-6e-3 -1.1972-9e-3 -1.7958-0.01 0.6025 1.949 1.2173 3.899 1.8279 5.846z" fill="url(#paint14_linear_364:421)"/>
<path d="m34.244 152.25c-0.693-0.37-1.4756-0.581-2.3052-0.581-0.9849 0-1.9044 0.297-2.6853 0.806 0.8897 0.514 1.7855 1.034 2.6853 1.558v1.351c0.7759 0 1.5518 2e-3 2.3277 5e-3 -0.0055-1.046-0.013-2.093-0.0225-3.139z" fill="url(#paint15_linear_364:421)"/>
<path d="m34.268 155.39c-0.7782-0.453-1.5544-0.906-2.3276-1.356-0.7732 0.45-1.5495 0.903-2.3277 1.356-0.0047 0.899-0.0079 1.798-0.0097 2.697 0.7783 0.448 1.5577 0.898 2.3373 1.348 0.7796-0.45 1.5591-0.9 2.3373-1.348-0.0016-0.899-0.0048-1.798-0.0096-2.697z" fill="url(#paint16_linear_364:421)"/>
<path d="m34.268 155.39c-0.7782-0.453-1.5544-0.906-2.3276-1.356-0.7732 0.45-1.5495 0.903-2.3277 1.356-0.0047 0.899-0.0079 1.798-0.0097 2.697 0.7783 0.448 1.5577 0.898 2.3373 1.348 0.7796-0.45 1.5591-0.9 2.3373-1.348-0.0016-0.899-0.0048-1.798-0.0096-2.697z" fill="url(#paint17_radial_364:421)"/>
<path d="m117.72 48.267c0 0.4693 0.38 0.8496 0.849 0.8496h7.321c0.469 0 0.849-0.3803 0.849-0.8496s-0.38-0.8496-0.849-0.8496h-7.321c-0.469 0-0.849 0.3804-0.849 0.8496z" fill="#000"/>
<path d="m169.91 44.288h-43.55c-0.469 0-0.849 0.3803-0.849 0.8496 0 0.4694 0.38 0.8497 0.849 0.8497h43.55c0.215 0 0.389 0.1742 0.389 0.3883v4.1701h-54.602v-4.1701c0-0.2141 0.174-0.3883 0.389-0.3883h6.878c0.469 0 0.849-0.3803 0.849-0.8497 0-0.4693-0.38-0.8496-0.849-0.8496h-6.878c-1.152 0-2.088 0.9365-2.088 2.0876v47.248c0 1.1512 0.936 2.0877 2.088 2.0877h44.627c0.469 0 0.85-0.3803 0.85-0.8497 0-0.4693-0.381-0.8496-0.85-0.8496h-44.627c-0.215 0-0.389-0.1742-0.389-0.3884v-41.379h54.602v41.379c0 0.2142-0.174 0.3884-0.389 0.3884h-5.8c-0.469 0-0.85 0.3803-0.85 0.8496 0 0.4694 0.381 0.8497 0.85 0.8497h5.8c1.152 0 2.088-0.9365 2.088-2.0877v-47.248c0-1.1511-0.936-2.0876-2.088-2.0876z" fill="#000"/>
<path d="m143 63.66c-1.841 0-3.338 1.4975-3.338 3.3382v2.3303h-0.816c-0.808 0-1.466 0.6576-1.466 1.4659v6.3449c0 0.8082 0.658 1.4657 1.466 1.4657h8.308c0.808 0 1.466-0.6576 1.466-1.4657v-6.3449c0-0.8084-0.658-1.4659-1.466-1.4659h-0.816v-2.3303c0-1.8407-1.497-3.3382-3.338-3.3382zm-1.639 3.3382c0-0.9037 0.735-1.6389 1.639-1.6389s1.639 0.7352 1.639 1.6389v2.3303h-3.278v-2.3303zm5.56 9.9077h-7.842v-5.8782h7.842v5.8782z" fill="#000"/>
<path d="m163.21 81.014c1.314 0 2.383-1.0691 2.383-2.3833s-1.069-2.3833-2.383-2.3833c-0.231 0-0.455 0.0348-0.666 0.0966l-1.567-1.5667c-0.159-0.1592-0.375-0.2487-0.601-0.2487h-4.911v-3.9848h4.996c0.343 0.8953 1.209 1.5337 2.224 1.5337 1.314 0 2.383-1.0691 2.383-2.3833s-1.069-2.3833-2.383-2.3833c-1.015 0-1.881 0.6384-2.224 1.5337h-4.996v-3.9848h4.911c0.226 0 0.442-0.0895 0.601-0.2488l1.567-1.5667c0.211 0.0619 0.435 0.0967 0.666 0.0967 1.314 0 2.383-1.0692 2.383-2.3832 0-1.3141-1.069-2.3834-2.383-2.3834s-2.383 1.0692-2.383 2.3834c0 0.4567 0.131 0.8823 0.355 1.2453l-1.158 1.1576h-4.559v-1.6417c0-0.9276-0.755-1.6826-1.683-1.6826h-9.506c-0.469 0-0.85 0.3803-0.85 0.8497 0 0.4693 0.381 0.8496 0.85 0.8496h9.49v15.362l-10.765 7.8209-10.765-7.8209v-15.363h8.643c0.47 0 0.85-0.3802 0.85-0.8496 0-0.4693-0.38-0.8496-0.85-0.8496h-8.659c-0.928 0-1.683 0.7548-1.683 1.6826v1.6417h-4.559l-1.158-1.1577c0.224-0.3629 0.355-0.7885 0.355-1.2453 0-1.3141-1.069-2.3833-2.383-2.3833s-2.383 1.0692-2.383 2.3833c0 1.3142 1.069 2.3832 2.383 2.3832 0.232 0 0.455-0.0347 0.666-0.0966l1.567 1.5666c0.159 0.1594 0.375 0.2489 0.601 0.2489h4.911v3.9847h-4.996c-0.343-0.8952-1.209-1.5337-2.224-1.5337-1.314 0-2.383 1.0692-2.383 2.3834 0 1.3141 1.069 2.3833 2.383 2.3833 1.015 0 1.881-0.6385 2.224-1.5337h4.996v3.9847h-4.911c-0.226 0-0.442 0.0895-0.601 0.2489l-1.567 1.5666c-0.211-0.0619-0.435-0.0966-0.666-0.0966-1.314 0-2.383 1.0691-2.383 2.3833s1.069 2.3833 2.383 2.3833 2.383-1.0691 2.383-2.3833c0-0.4568-0.131-0.8825-0.355-1.2454l1.158-1.1577h4.559v0.6789c0 0.5368 0.259 1.0455 0.694 1.3612l10.781 7.8331c0.296 0.2149 0.642 0.3225 0.989 0.3225 0.347-1e-4 0.693-0.1075 0.989-0.3225l10.781-7.8331c0.435-0.3155 0.694-0.8243 0.694-1.3612v-0.6789h4.559l1.158 1.1577c-0.224 0.3629-0.355 0.7886-0.355 1.2454 0 1.3143 1.069 2.3835 2.383 2.3835zm-0.525-12.004c0.377 0 0.684 0.3068 0.684 0.6841 0 0.3772-0.307 0.6841-0.684 0.6841s-0.684-0.3069-0.684-0.6841c0-0.3773 0.307-0.6841 0.684-0.6841zm0.525-8.9366c0.377 0 0.684 0.3069 0.684 0.6841 0 0.3771-0.307 0.684-0.684 0.684s-0.684-0.3069-0.684-0.684c0-0.3772 0.307-0.6841 0.684-0.6841zm-41.102 0.6841c0-0.3772 0.307-0.6841 0.684-0.6841s0.684 0.3069 0.684 0.6841c0 0.3771-0.307 0.684-0.684 0.684s-0.684-0.3069-0.684-0.684zm1.209 9.6207c-0.377 0-0.684-0.3069-0.684-0.6841 0-0.3773 0.307-0.6841 0.684-0.6841s0.684 0.3068 0.684 0.6841c0 0.3772-0.307 0.6841-0.684 0.6841zm-0.525 8.9366c-0.377 0-0.684-0.3069-0.684-0.6841s0.307-0.6841 0.684-0.6841 0.684 0.3069 0.684 0.6841-0.307 0.6841-0.684 0.6841zm41.102-0.6841c0 0.3772-0.307 0.6841-0.684 0.6841s-0.684-0.3069-0.684-0.6841 0.307-0.6841 0.684-0.6841 0.684 0.3069 0.684 0.6841z" fill="#000"/>
<path d="m198.62 57.42h1.693c-0.051-1.8637-1.699-3.216-4.062-3.216-2.336 0-4.125 1.3353-4.125 3.341 0 1.6193 1.159 2.5681 3.028 3.0738l1.375 0.375c1.244 0.3296 2.205 0.7387 2.205 1.7727 0 1.1364-1.086 1.8864-2.58 1.8864-1.352 0-2.477-0.6023-2.579-1.8693h-1.762c0.114 2.1079 1.744 3.4091 4.352 3.4091 2.733 0 4.307-1.4375 4.307-3.4091 0-2.0966-1.869-2.9091-3.346-3.2727l-1.137-0.2955c-0.909-0.2329-2.119-0.6591-2.113-1.7727 0-0.9887 0.903-1.7216 2.335-1.7216 1.335 0 2.284 0.625 2.409 1.6989zm6.054 8.7727c1.443 0 2.255-0.733 2.579-1.3864h0.068v1.1932h1.66v-5.7955c0-2.5397-2-3.0454-3.387-3.0454-1.579 0-3.034 0.6364-3.602 2.2273l1.596 0.3636c0.25-0.6193 0.887-1.2159 2.029-1.2159 1.096 0 1.659 0.5739 1.659 1.5625v0.0398c0 0.6193-0.636 0.6079-2.205 0.7897-1.653 0.1932-3.346 0.625-3.346 2.608 0 1.7159 1.29 2.6591 2.949 2.6591zm0.369-1.3637c-0.96 0-1.653-0.4318-1.653-1.2727 0-0.9091 0.806-1.2329 1.789-1.3636 0.552-0.0739 1.858-0.2216 2.103-0.4659v1.125c0 1.0341-0.824 1.9772-2.239 1.9772zm10.054-7.5568h-1.881v-0.7841c0-0.7727 0.318-1.1931 1.148-1.1931 0.352 0 0.602 0.0795 0.761 0.1306l0.398-1.375c-0.239-0.0909-0.733-0.2329-1.421-0.2329-1.38 0-2.591 0.8068-2.591 2.4432v1.0113h-1.346v1.3637h1.346v7.3636h1.705v-7.3636h1.881v-1.3637zm4.87 8.9034c1.904 0 3.25-0.9375 3.637-2.3579l-1.608-0.2898c-0.307 0.8239-1.046 1.2443-2.012 1.2443-1.454 0-2.432-0.9432-2.477-2.625h6.204v-0.6022c0-3.1535-1.886-4.3864-3.863-4.3864-2.432 0-4.034 1.8523-4.034 4.5341 0 2.7102 1.579 4.4829 4.153 4.4829zm-2.454-5.3011c0.068-1.2386 0.966-2.3125 2.346-2.3125 1.318 0 2.182 0.9773 2.188 2.3125h-4.534zm-23.484 12.489h-1.756v11.636h1.756v-11.636zm3.819 6.4546c0-1.3921 0.853-2.1875 2.034-2.1875 1.154 0 1.853 0.7557 1.853 2.0227v5.3466h1.699v-5.5511c0-2.1591-1.188-3.2898-2.972-3.2898-1.312 0-2.17 0.6079-2.574 1.5341h-0.108v-1.4205h-1.63v8.7273h1.698v-5.1818zm11.638-3.5455h-1.79v-2.0909h-1.699v2.0909h-1.278v1.3637h1.278v5.1534c-5e-3 1.5852 1.205 2.3522 2.546 2.3238 0.539-0.0056 0.903-0.1079 1.102-0.1818l-0.307-1.4034c-0.113 0.0227-0.324 0.0739-0.596 0.0739-0.552 0-1.046-0.1818-1.046-1.1648v-4.8011h1.79v-1.3637zm5.247 8.9034c1.903 0 3.25-0.9375 3.636-2.3579l-1.608-0.2898c-0.307 0.8239-1.045 1.2443-2.011 1.2443-1.455 0-2.432-0.9432-2.477-2.625h6.204v-0.6022c0-3.1535-1.886-4.3864-3.864-4.3864-2.431 0-4.034 1.8523-4.034 4.5341 0 2.7102 1.58 4.4829 4.154 4.4829zm-2.455-5.3011c0.068-1.2386 0.966-2.3125 2.347-2.3125 1.318 0 2.182 0.9773 2.187 2.3125h-4.534zm7.784 5.125h1.699v-5.3295c0-1.1421 0.881-1.966 2.085-1.966 0.352 0 0.75 0.0625 0.886 0.1023v-1.625c-0.17-0.0227-0.505-0.0398-0.721-0.0398-1.023 0-1.898 0.5796-2.216 1.5171h-0.091v-1.3864h-1.642v8.7273zm7.54-5.1818c0-1.3921 0.852-2.1875 2.034-2.1875 1.153 0 1.852 0.7557 1.852 2.0227v5.3466h1.699v-5.5511c0-2.1591-1.188-3.2898-2.972-3.2898-1.312 0-2.17 0.6079-2.574 1.5341h-0.108v-1.4205h-1.63v8.7273h1.699v-5.1818zm11.325 5.3579c1.903 0 3.25-0.9375 3.636-2.3579l-1.608-0.2898c-0.307 0.8239-1.046 1.2443-2.011 1.2443-1.455 0-2.432-0.9432-2.478-2.625h6.205v-0.6022c0-3.1535-1.887-4.3864-3.864-4.3864-2.432 0-4.034 1.8523-4.034 4.5341 0 2.7102 1.58 4.4829 4.154 4.4829zm-2.455-5.3011c0.068-1.2386 0.966-2.3125 2.347-2.3125 1.318 0 2.181 0.9773 2.187 2.3125h-4.534zm11.858-3.6023h-1.79v-2.0909h-1.699v2.0909h-1.278v1.3637h1.278v5.1534c-6e-3 1.5852 1.205 2.3522 2.545 2.3238 0.54-0.0056 0.904-0.1079 1.103-0.1818l-0.307-1.4034c-0.114 0.0227-0.324 0.0739-0.597 0.0739-0.551 0-1.045-0.1818-1.045-1.1648v-4.8011h1.79v-1.3637z" fill="#000"/>
<rect x="468" y="171" width="335" height="50" rx="10" fill="#FF7128"/>
</svg>
